# xmcd CD database file
#
# Track frame offsets:
#	150
#	32599
#	59967
#	81859
#	103486
#	128410
#	161854
#	182343
#	208419
#	236454
#
# Disc length: 3448 seconds
#
# Revision: 0
# Processed by: cddbd v1.4PL0 Copyright (c) Steve Scherf et al.
# Submitted via: CDex 1.51
#
DISCID=8d0d760a
DTITLE=W-quartet - Au milieu de nulle part
DYEAR=2003
DGENRE=Jazz
TTITLE0=Ratte de chat
TTITLE1=Calisto
TTITLE2=Hydra
TTITLE3=Katghina
TTITLE4=Zagora
TTITLE5=Kawa
TTITLE6=Adelie
TTITLE7=Guanako
TTITLE8=Prism
TTITLE9=Dialogue
EXTD=YEAR: 2003
EXTT0=
EXTT1=
EXTT2=
EXTT3=
EXTT4=
EXTT5=
EXTT6=
EXTT7=
EXTT8=
EXTT9=
PLAYORDER=
